HIERARCHY
ROOT Hips
{
	OFFSET -0.001795 -0.223333 0.028219
	CHANNELS 6 Xposition Yposition Zposition Zrotation Yrotation Xrotation 
	JOINT LeftUpLeg
	{
		OFFSET 0.069520 -0.091406 -0.006815
		CHANNELS 3 Zrotation Yrotation Xrotation
		JOINT LeftLeg
		{
			OFFSET 0.034277 -0.375199 -0.004496
			CHANNELS 3 Zrotation Yrotation Xrotation
			JOINT LeftFoot
			{
				OFFSET -0.013596 -0.397961 -0.043693
				CHANNELS 3 Zrotation Yrotation Xrotation
				JOINT LeftToe
				{
					OFFSET 0.026358 -0.055791 0.119288
					CHANNELS 3 Zrotation Yrotation Xrotation
					End Site
					{
						OFFSET 0.000000 0.000000 0.000000
					}
				}
			}
		}
	}
	JOINT RightUpLeg
	{
		OFFSET -0.067670 -0.090522 -0.004320
		CHANNELS 3 Zrotation Yrotation Xrotation
		JOINT RightLeg
		{
			OFFSET -0.038290 -0.382569 -0.008850
			CHANNELS 3 Zrotation Yrotation Xrotation
			JOINT RightFoot
			{
				OFFSET 0.015774 -0.398415 -0.042312
				CHANNELS 3 Zrotation Yrotation Xrotation
				JOINT RightToe
				{
					OFFSET -0.025372 -0.048144 0.123348
					CHANNELS 3 Zrotation Yrotation Xrotation
					End Site
					{
						OFFSET 0.000000 0.000000 0.000000
					}
				}
			}
		}
	}
	JOINT Spine
	{
		OFFSET -0.002533 0.108963 -0.026696
		CHANNELS 3 Zrotation Yrotation Xrotation
		JOINT Spine1
		{
			OFFSET 0.005487 0.135180 0.001092
			CHANNELS 3 Zrotation Yrotation Xrotation
			JOINT Spine2
			{
				OFFSET 0.001457 0.052922 0.025425
				CHANNELS 3 Zrotation Yrotation Xrotation
				JOINT Neck
				{
					OFFSET -0.002778 0.213870 -0.042857
					CHANNELS 3 Zrotation Yrotation Xrotation
					JOINT Head
					{
						OFFSET 0.005152 0.064970 0.051349
						CHANNELS 3 Zrotation Yrotation Xrotation
						End Site
						{
							OFFSET 0.000000 0.000000 0.000000
						}
					}
				}
				JOINT LeftShoulder
				{
					OFFSET 0.078845 0.121749 -0.034090
					CHANNELS 3 Zrotation Yrotation Xrotation
					JOINT LeftArm
					{
						OFFSET 0.090977 0.030469 -0.008868
						CHANNELS 3 Zrotation Yrotation Xrotation
						JOINT LeftForeArm
						{
							OFFSET 0.259612 -0.012772 -0.027456
							CHANNELS 3 Zrotation Yrotation Xrotation
							JOINT LeftHand
							{
								OFFSET 0.249234 0.008986 -0.001171
								CHANNELS 3 Zrotation Yrotation Xrotation
								End Site
								{
									OFFSET 0.000000 0.000000 0.000000
								}
							}
						}
					}
				}
				JOINT RightShoulder
				{
					OFFSET -0.081759 0.118833 -0.038615
					CHANNELS 3 Zrotation Yrotation Xrotation
					JOINT RightArm
					{
						OFFSET -0.096012 0.032551 -0.009143
						CHANNELS 3 Zrotation Yrotation Xrotation
						JOINT RightForeArm
						{
							OFFSET -0.253742 -0.013329 -0.021401
							CHANNELS 3 Zrotation Yrotation Xrotation
							JOINT RightHand
							{
								OFFSET -0.255298 0.007772 -0.005559
								CHANNELS 3 Zrotation Yrotation Xrotation
								End Site
								{
									OFFSET 0.000000 0.000000 0.000000
								}
							}
						}
					}
				}
			}
		}
	}
}
MOTION
Frames: 16
Frame Time: 0.050000
0.000000 0.956354 0.000000 -1.822360 1.309547 2.732983 6.518061 -0.006602 4.291184 -3.576466 0.391274 -7.678104 -10.560114 -4.121818 28.034980 0.000000 0.000000 0.000000 -3.165019 -0.078273 2.204751 3.332580 -0.399643 -3.757662 -15.580660 -29.646630 25.615232 0.000000 0.000000 0.000000 -2.434229 0.069197 -1.459814 3.755972 -0.341573 -22.832088 -0.664331 -0.600761 28.875862 0.379663 1.351458 -25.433021 0.000000 0.000000 0.000000 -22.269231 3.506161 -3.401735 -53.734356 -6.159992 -6.175226 -14.644317 -23.291667 4.283360 0.000000 0.000000 0.000000 13.950675 2.075019 0.442074 62.443228 4.081793 -6.659786 9.818072 25.106248 3.274343 0.000000 0.000000 0.000000 
0.000191 0.955765 0.000169 -1.956848 0.593360 3.047558 6.945307 -0.026101 4.158224 -4.250964 0.425358 -7.800581 -10.196527 -3.843272 27.942923 0.000000 0.000000 0.000000 -2.951386 -0.031401 1.560256 3.167812 -0.375586 -3.259314 -15.270886 -29.438404 24.797916 0.000000 0.000000 0.000000 -2.480480 0.102015 -2.917184 3.896304 -0.470439 -21.414579 -0.548412 -0.058861 28.633502 -0.150140 1.679875 -25.294630 0.000000 0.000000 0.000000 -22.735965 4.474503 -4.082190 -53.120873 -6.386211 -5.986603 -16.153657 -23.390875 4.616605 0.000000 0.000000 0.000000 13.513440 2.548216 0.693078 63.781392 3.634440 -6.974843 8.379243 26.595728 3.195224 0.000000 0.000000 0.000000 
0.000351 0.955547 0.000190 -1.597141 0.721162 3.146792 6.633180 -0.032160 3.494982 -4.382453 0.433799 -6.865498 -10.237784 -3.924273 27.835587 0.000000 0.000000 0.000000 -3.202210 -0.022424 1.584155 2.664782 -0.343242 -3.653337 -15.285294 -29.334289 25.443178 0.000000 0.000000 0.000000 -2.530952 0.112661 -3.513660 3.648941 -0.384627 -21.708621 -0.748617 -0.359416 29.393402 -0.279155 1.679397 -24.642597 0.000000 0.000000 0.000000 -22.564712 3.998466 -3.675347 -53.072223 -6.434489 -6.064220 -15.916203 -23.674452 4.645632 0.000000 0.000000 0.000000 13.993841 3.372765 1.055512 63.176228 3.540046 -7.061498 8.451834 26.395531 3.156808 0.000000 0.000000 0.000000 
0.000420 0.955552 0.000213 -1.626472 0.463298 3.359704 6.760633 -0.044472 3.270582 -4.768766 0.459538 -6.270861 -9.494983 -3.810773 26.066270 0.000000 0.000000 0.000000 -3.310600 0.008458 1.274918 3.056952 -0.366241 -3.331534 -15.122860 -29.286016 24.591051 0.000000 0.000000 0.000000 -2.744772 0.126857 -4.314723 3.856185 -0.452425 -21.558483 -0.736955 -0.385396 29.710013 -0.450450 1.740256 -24.415871 0.000000 0.000000 0.000000 -22.890046 4.767229 -4.119744 -52.975976 -6.685821 -5.973619 -16.766494 -23.265163 4.759817 0.000000 0.000000 0.000000 13.393815 3.594689 1.149126 63.635737 3.487091 -7.165256 8.865094 26.416130 3.249389 0.000000 0.000000 0.000000 
0.000407 0.955849 0.000156 -1.612042 0.908882 3.191485 6.731268 -0.049592 3.266412 -5.241598 0.488143 -5.456921 -8.021364 -2.710696 23.887361 0.000000 0.000000 0.000000 -3.260921 -0.020539 1.580480 2.718622 -0.347529 -3.598713 -15.086443 -29.073606 25.403272 0.000000 0.000000 0.000000 -2.736006 0.120890 -4.174873 4.074963 -0.530773 -21.084133 -1.071128 -0.450774 29.233119 -0.520415 1.794277 -23.868701 0.000000 0.000000 0.000000 -22.463946 4.580454 -4.038144 -53.215249 -6.577406 -5.970711 -17.220679 -23.798108 4.955479 0.000000 0.000000 0.000000 13.504706 3.421683 1.087380 63.441708 3.284897 -7.182308 9.515549 26.339152 3.379214 0.000000 0.000000 0.000000 
0.000447 0.956192 0.000084 -1.600896 1.121085 3.163501 6.835900 -0.062395 3.145790 -6.407995 0.579070 -4.270041 -5.614849 -0.665722 20.669572 0.000000 0.000000 0.000000 -3.304366 -0.038000 1.817208 2.635817 -0.343218 -3.625667 -14.537700 -28.430686 24.912608 0.000000 0.000000 0.000000 -3.024868 0.116881 -4.351502 4.292859 -0.564956 -21.436838 -1.045423 -0.648695 29.877364 -0.712644 1.906943 -24.082841 0.000000 0.000000 0.000000 -22.393685 4.842781 -4.146704 -53.438673 -6.928034 -5.910134 -17.399037 -23.766134 5.005530 0.000000 0.000000 0.000000 13.164653 3.464468 1.122925 63.501784 3.431749 -7.188954 9.508843 25.961051 3.326642 0.000000 0.000000 0.000000 
0.000497 0.956124 -0.000031 -1.601735 1.165841 3.058224 6.825613 -0.059418 3.200363 -7.734397 0.705881 -3.168656 -2.765297 2.256046 17.381693 0.000000 0.000000 0.000000 -3.230824 -0.051461 1.939622 2.490941 -0.333007 -3.648974 -14.547006 -28.433696 24.953834 0.000000 0.000000 0.000000 -3.105210 0.112849 -4.265841 4.350396 -0.591774 -21.246632 -1.133313 -0.792708 29.817445 -0.679360 1.871867 -24.213569 0.000000 0.000000 0.000000 -22.445443 4.789877 -4.088459 -53.540126 -6.968657 -5.902071 -17.461313 -23.806127 5.035766 0.000000 0.000000 0.000000 13.111455 3.806210 1.266403 63.617247 3.487619 -7.167461 9.402489 25.925920 3.289330 0.000000 0.000000 0.000000 
0.000607 0.955934 -0.000221 -1.650667 1.126867 3.040695 6.710083 -0.056540 3.075391 -8.672100 0.831119 -1.927293 -0.502098 4.683473 14.334570 0.000000 0.000000 0.000000 -3.089396 -0.054797 1.902090 2.437045 -0.326799 -3.545648 -14.670826 -28.628188 24.768613 0.000000 0.000000 0.000000 -3.114035 0.112048 -4.204904 4.383845 -0.596903 -21.318929 -1.112301 -0.670553 29.914278 -0.619449 1.840524 -23.957961 0.000000 0.000000 0.000000 -22.528920 4.401775 -3.891433 -53.251333 -7.067177 -5.848082 -17.504364 -23.828560 5.039567 0.000000 0.000000 0.000000 13.097782 3.944189 1.355257 63.759692 3.553791 -7.153261 9.241163 25.747163 3.233727 0.000000 0.000000 0.000000 
0.000733 0.955691 -0.000437 -1.691257 0.910217 3.097009 6.650976 -0.050629 3.066012 -8.575873 0.825122 -1.988852 -0.365880 4.842612 14.249545 0.000000 0.000000 0.000000 -3.065835 -0.044174 1.775114 2.392315 -0.322258 -3.559887 -14.600316 -28.549712 24.759954 0.000000 0.000000 0.000000 -3.062090 0.114281 -4.165021 4.405812 -0.600864 -21.407433 -1.096292 -0.620911 29.887152 -0.594619 1.810823 -23.935628 0.000000 0.000000 0.000000 -22.565580 4.365223 -3.847397 -53.406174 -7.186722 -5.812077 -17.132852 -23.365259 4.858399 0.000000 0.000000 0.000000 13.102216 4.140429 1.432199 63.666572 3.609398 -7.118030 8.891006 25.590644 3.126299 0.000000 0.000000 0.000000 
0.000830 0.955569 -0.000649 -1.708713 0.768382 3.156727 6.659859 -0.049051 3.069865 -8.613681 0.827408 -2.099820 -0.296325 4.933145 14.247550 0.000000 0.000000 0.000000 -3.075705 -0.035139 1.680801 2.291943 -0.312980 -3.516566 -14.310853 -28.208288 24.582122 0.000000 0.000000 0.000000 -3.026513 0.116282 -4.174495 4.340451 -0.580512 -21.469989 -1.070336 -0.525518 29.870096 -0.546964 1.778477 -23.837294 0.000000 0.000000 0.000000 -22.462125 4.205305 -3.739066 -53.552161 -7.100826 -5.858356 -16.991665 -23.266306 4.805424 0.000000 0.000000 0.000000 13.121641 4.354149 1.533340 63.677040 3.503613 -7.167784 8.832516 25.672605 3.121658 0.000000 0.000000 0.000000 
0.000896 0.955629 -0.000823 -1.702103 0.627829 3.168145 6.716086 -0.048451 3.093631 -8.769547 0.842250 -2.152707 -0.254434 5.004426 14.324452 0.000000 0.000000 0.000000 -3.102784 -0.030932 1.655060 2.350071 -0.317072 -3.532880 -14.295586 -28.216161 24.477201 0.000000 0.000000 0.000000 -2.996636 0.117427 -4.152244 4.323874 -0.576883 -21.506688 -1.022665 -0.474747 29.918393 -0.458192 1.722159 -23.917285 0.000000 0.000000 0.000000 -22.417509 4.100766 -3.656456 -53.565691 -7.140390 -5.853436 -17.047494 -23.339379 4.836531 0.000000 0.000000 0.000000 13.080139 4.477538 1.587453 63.659128 3.490664 -7.184848 8.836409 25.606059 3.110425 0.000000 0.000000 0.000000 
0.000948 0.955744 -0.000917 -1.693102 0.375095 3.128868 6.768496 -0.041939 3.202494 -8.950631 0.861546 -2.222862 -0.172695 5.135624 14.438429 0.000000 0.000000 0.000000 -3.131240 -0.031543 1.702918 2.325212 -0.312412 -3.465336 -13.972148 -27.874614 24.007551 0.000000 0.000000 0.000000 -3.037210 0.116606 -4.092276 4.376927 -0.596855 -21.479215 -0.965844 -0.336370 29.832360 -0.315268 1.642963 -24.119537 0.000000 0.000000 0.000000 -22.328975 4.186333 -3.691561 -53.649350 -7.080651 -5.877386 -17.220559 -23.339943 4.876393 0.000000 0.000000 0.000000 12.982042 4.582311 1.628751 63.699262 3.468667 -7.187812 8.770000 25.567620 3.084526 0.000000 0.000000 0.000000 
0.001005 0.955822 -0.000959 -1.711275 0.055739 3.082509 6.748540 -0.033233 3.220662 -8.975203 0.877471 -2.101125 -0.022998 5.340715 14.473135 0.000000 0.000000 0.000000 -3.068105 -0.037919 1.777757 2.321591 -0.311297 -3.502229 -13.884008 -27.836447 23.624717 0.000000 0.000000 0.000000 -3.018866 0.116398 -3.982369 4.391961 -0.610476 -21.430564 -0.874238 -0.226325 29.837886 -0.301905 1.617795 -24.048784 0.000000 0.000000 0.000000 -22.422758 4.069846 -3.604027 -53.455166 -7.057041 -5.880777 -17.353832 -23.680477 4.986263 0.000000 0.000000 0.000000 12.998286 4.737900 1.684700 63.599073 3.355272 -7.248672 8.826506 25.615355 3.096302 0.000000 0.000000 0.000000 
0.001089 0.955853 -0.000991 -1.744211 -0.176486 3.068913 6.750548 -0.027397 3.257517 -8.991017 0.885116 -2.090435 0.085609 5.487727 14.493730 0.000000 0.000000 0.000000 -3.021679 -0.036767 1.755365 2.312162 -0.308547 -3.466446 -13.814571 -27.784391 23.436240 0.000000 0.000000 0.000000 -3.007665 0.114776 -3.804055 4.447387 -0.626470 -21.468354 -0.778727 -0.148830 29.784790 -0.275133 1.595836 -24.136790 0.000000 0.000000 0.000000 -22.476349 4.044823 -3.575496 -53.492187 -7.078071 -5.872455 -17.406674 -23.900197 5.053341 0.000000 0.000000 0.000000 12.878194 4.890582 1.743140 63.562572 3.329016 -7.255249 8.859974 25.675869 3.105339 0.000000 0.000000 0.000000 
0.001204 0.955974 -0.001042 -1.797055 -0.486773 3.053283 6.768905 -0.020439 3.304149 -9.022997 0.896343 -2.079056 0.228124 5.687550 14.550611 0.000000 0.000000 0.000000 -3.071825 -0.038498 1.840427 2.458295 -0.320199 -3.610939 -13.595561 -27.545214 23.195654 0.000000 0.000000 0.000000 -2.959620 0.115127 -3.695565 4.434366 -0.628916 -21.495192 -0.697163 -0.064694 29.801733 -0.320746 1.611531 -24.218959 0.000000 0.000000 0.000000 -22.479373 4.063768 -3.553314 -53.485956 -7.119620 -5.858817 -17.521245 -23.969694 5.101376 0.000000 0.000000 0.000000 12.753747 5.031236 1.790368 63.550757 3.425102 -7.209886 8.902853 25.667715 3.107274 0.000000 0.000000 0.000000 
0.001321 0.956096 -0.001166 -1.820421 -0.797835 3.091165 6.806957 -0.018329 3.245819 -9.144479 0.919329 -1.998959 0.364225 5.883553 14.632418 0.000000 0.000000 0.000000 -3.037081 -0.027608 1.704783 2.398353 -0.311729 -3.481635 -13.416738 -27.359358 22.948619 0.000000 0.000000 0.000000 -2.937646 0.116652 -3.676462 4.453601 -0.633480 -21.564052 -0.704282 0.064765 29.854694 -0.318798 1.592760 -24.062572 0.000000 0.000000 0.000000 -22.467363 4.151166 -3.580566 -53.660984 -7.157529 -5.859866 -17.376285 -24.036671 5.092691 0.000000 0.000000 0.000000 12.691905 5.116145 1.816118 63.573697 3.379985 -7.239160 9.013010 25.864907 3.154777 0.000000 0.000000 0.000000 
